# xmcd
#
# Track frame offsets:
#	150
#	14700
#	30272
#	42672
#	70310
#	89225
#	105837
#	119730
#	133870
#	156552
#	169047
#	179392
#	201952
#
# Disc length: 2826 seconds
#
# Revision: 2
# Processed by: cddbd v1.4PL0 Copyright (c) Steve Scherf et al.
# Submitted via: EasyCDDAExtractor 6.0.0.1
#
DISCID=c10b080d
DTITLE=Colin James - Colin James and the Little Big Band
DYEAR=1993
DGENRE=Blues
TTITLE0=Cadillac Baby
TTITLE1=That's What You Do To Me
TTITLE2=Sit Right Here
TTITLE3=Three Hours Past Midnight
TTITLE4=Satellite
TTITLE5=Surely (I Love You)
TTITLE6=Breakin' Up The House
TTITLE7=No More Doggin'
TTITLE8=Evenin'
TTITLE9=Train Kept A Rollin'
TTITLE10=Leading Me On
TTITLE11=The Boogie Twist Part II
TTITLE12=Cha Shooky Doo
EXTD=Virgin Records
EXTT0=
EXTT1=
EXTT2=
EXTT3=
EXTT4=
EXTT5=
EXTT6=
EXTT7=
EXTT8=
EXTT9=
EXTT10=
EXTT11=
EXTT12=
PLAYORDER=
